<svg width="31" height="21" viewBox="0 0 31 21" fill="none" xmlns="http://www.w3.org/2000/svg">
<path d="M26.3888 7.13425V1H4.42984V7.13425M26.3888 7.13425H4.42984M26.3888 7.13425L28.4437 13.009M4.42984 7.13425L2.51095 13.009M1 14.7617C1 14.3007 1.18838 13.8587 1.52369 13.5327C1.85899 13.2068 2.31378 13.0237 2.78797 13.0237H28.2171C28.4514 13.0231 28.6835 13.0675 28.9001 13.1543C29.1167 13.2412 29.3136 13.3688 29.4793 13.5299C29.6449 13.6909 29.7762 13.8823 29.8656 14.0928C29.955 14.3034 30.0007 14.529 30 14.7568L28.63 20H26.9831L27.4867 17.8166H3.51823L4.02188 20H2.37494L1 14.7617Z" stroke="#333333" stroke-width="1.5" stroke-linecap="round" stroke-linejoin="round"/>
</svg>
