<svg width="29" height="25" viewBox="0 0 29 25" fill="none" xmlns="http://www.w3.org/2000/svg">
<path d="M27.8883 11.6916C28.2046 12.1854 28.2046 12.8138 27.8883 13.3076C25.7939 16.5771 22.501 21.7299 21.1714 23.8107C20.8959 24.242 20.4313 24.4979 19.922 24.4984C15.9229 24.5024 6.1949 24.498 1.99204 24.4958C1.16446 24.4954 0.502151 23.8342 0.501582 23.0085C0.497972 17.7693 0.501442 6.55669 0.503093 1.9958C0.503392 1.1696 1.17045 0.502543 1.99719 0.501896C6.78604 0.498147 16.6349 0.500931 19.9162 0.502013C20.428 0.502182 20.8972 0.759276 21.1727 1.19047C22.5031 3.27263 25.7946 8.42315 27.8883 11.6916Z" stroke="#3EAF79"/>
<path d="M8.52778 17.5165L16.8069 7.36264M10.6667 8.79186C10.6667 9.78147 9.84586 10.5837 8.83333 10.5837C7.82081 10.5837 7 9.78147 7 8.79186C7 7.80224 7.82081 7 8.83333 7C9.84586 7 10.6667 7.80224 10.6667 8.79186ZM18 16.2224C18 17.2041 17.1857 18 16.1812 18C15.1767 18 14.3624 17.2041 14.3624 16.2224C14.3624 15.2406 15.1767 14.4447 16.1812 14.4447C17.1857 14.4447 18 15.2406 18 16.2224Z" stroke="#3EAF79" stroke-miterlimit="10" stroke-linecap="square"/>
</svg>
